<svg width="28" height="29" viewBox="0 0 28 29" fill="none" xmlns="http://www.w3.org/2000/svg">
<g id="Arrow - Down 3">
<g id="Iconly/Bold/Arrow---Down-2">
<g id="Arrow---Down-2">
<path id="Vector" d="M19.4027 15.444C19.3367 15.5117 19.0878 15.801 18.856 16.039C17.4967 17.5358 13.9506 19.9858 12.0947 20.7337C11.8128 20.8538 11.1002 21.1082 10.7194 21.1245C10.3546 21.1245 10.0068 21.0405 9.67495 20.8702C9.26124 20.6322 8.92937 20.2577 8.74752 19.8155C8.63046 19.5087 8.44861 18.5905 8.44861 18.5742C8.26676 17.5697 8.16675 15.9375 8.16675 14.1338C8.16675 12.4153 8.26676 10.8497 8.41565 9.83001C8.4327 9.81368 8.61455 8.67268 8.81344 8.28185C9.17828 7.56785 9.89089 7.12451 10.6535 7.12451H10.7194C11.2161 7.14201 12.2606 7.58535 12.2606 7.60168C14.0166 8.35068 17.4808 10.6805 18.873 12.2287C18.873 12.2287 19.2651 12.6265 19.4356 12.875C19.7016 13.232 19.8334 13.6742 19.8334 14.1163C19.8334 14.6098 19.6845 15.0695 19.4027 15.444Z" fill="#FB9C46"/>
</g>
</g>
</g>
</svg>
