<svg width="45" height="45" viewBox="0 0 45 45" fill="none" xmlns="http://www.w3.org/2000/svg">
<circle cx="22.5" cy="22.5" r="22.5" fill="#FB9C46"/>
<path d="M26.2579 11.4165C26.7532 11.4153 27.1449 11.8139 27.146 12.3453L27.1472 13.251C30.3609 13.5119 32.4839 15.78 32.4873 19.2583L32.5 29.4394C32.5046 33.2317 30.2043 35.565 26.5171 35.5711L17.5105 35.5832C13.8464 35.588 11.5173 33.1991 11.5127 29.396L11.5 19.3344C11.4954 15.8332 13.5435 13.5711 16.7572 13.2655L16.7561 12.3597C16.7549 11.8283 17.135 11.4286 17.6419 11.4286C18.1487 11.4274 18.5288 11.8259 18.53 12.3573L18.5311 13.2027L25.3733 13.1931L25.3721 12.3477C25.371 11.8163 25.7511 11.4177 26.2579 11.4165ZM26.7279 28.565H26.7164C26.1865 28.5783 25.7615 29.0385 25.773 29.594C25.7741 30.1496 26.2015 30.6073 26.7314 30.6194C27.2716 30.6182 27.7093 30.158 27.7082 29.5904C27.7082 29.0228 27.2693 28.565 26.7279 28.565ZM17.2364 28.5663C16.7065 28.5904 16.2918 29.0506 16.293 29.6061C16.3172 30.1617 16.7549 30.5964 17.2848 30.5711C17.8043 30.5469 18.2178 30.0868 18.1936 29.5312C18.1821 28.9878 17.7547 28.565 17.2364 28.5663ZM21.9821 28.5602C21.4523 28.5856 21.0388 29.0445 21.0388 29.6001C21.0629 30.1556 21.5007 30.5892 22.0305 30.565C22.5489 30.5397 22.9635 30.0807 22.9394 29.524C22.9278 28.9817 22.5005 28.559 21.9821 28.5602ZM17.2306 24.2184C16.7008 24.2426 16.2872 24.7027 16.2884 25.2583C16.3114 25.8138 16.7503 26.2486 17.2802 26.2233C17.7985 26.1991 18.212 25.739 18.1878 25.1834C18.1763 24.6399 17.7501 24.2172 17.2306 24.2184ZM21.9775 24.1762C21.4477 24.2003 21.033 24.6605 21.0341 25.216C21.0572 25.7716 21.4961 26.2051 22.0259 26.181C22.5443 26.1556 22.9578 25.6967 22.9348 25.1411C22.9221 24.5977 22.4959 24.175 21.9775 24.1762ZM26.7233 24.1822C26.1934 24.1943 25.7788 24.6411 25.7799 25.1967V25.21C25.7914 25.7655 26.2291 26.187 26.7602 26.175C27.2785 26.1617 27.692 25.7015 27.6805 25.146C27.6563 24.6146 27.2405 24.181 26.7233 24.1822ZM25.3756 15.053L18.5334 15.0626L18.5346 16.0397C18.5346 16.5602 18.1556 16.9709 17.6488 16.9709C17.1419 16.9721 16.7607 16.5626 16.7607 16.0421L16.7595 15.1122C14.5133 15.3453 13.2705 16.7124 13.2739 19.332L13.2751 19.7076L30.7146 19.6834V19.2607C30.665 16.6641 29.4072 15.3018 27.1495 15.0989L27.1506 16.0288C27.1506 16.5481 26.7602 16.96 26.2648 16.96C25.758 16.9612 25.3767 16.5506 25.3767 16.0312L25.3756 15.053Z" fill="white"/>
</svg>
