<svg width="45" height="45" viewBox="0 0 45 45" fill="none" xmlns="http://www.w3.org/2000/svg">
<circle cx="22.5" cy="22.5" r="22.5" fill="#FB9C46"/>
<path d="M15.4375 14.75C14.8905 14.75 14.3659 14.9673 13.9791 15.3541C13.5923 15.7409 13.375 16.2655 13.375 16.8125V28.5H32.625V16.8125C32.625 16.2655 32.4077 15.7409 32.0209 15.3541C31.6341 14.9673 31.1095 14.75 30.5625 14.75H15.4375ZM12 29.1875H34C34 29.7345 33.7827 30.2591 33.3959 30.6459C33.0091 31.0327 32.4845 31.25 31.9375 31.25H14.0625C13.5155 31.25 12.9909 31.0327 12.6041 30.6459C12.2173 30.2591 12 29.7345 12 29.1875V29.1875Z" fill="white"/>
</svg>
