<svg width="35" height="35" viewBox="0 0 35 35" fill="none" xmlns="http://www.w3.org/2000/svg">
<path d="M23.9421 3.30371C28.748 3.30371 31.9661 6.67775 31.9661 11.6963V23.28C31.9661 28.283 28.748 31.657 23.9421 31.657H11.651C6.84507 31.657 3.61279 28.283 3.61279 23.28V11.6963C3.61279 6.67775 6.84507 3.30371 11.651 3.30371H23.9421ZM23.7153 13.2274C23.2333 12.7454 22.4394 12.7454 21.9574 13.2274L16.1024 19.0823L13.6215 16.6014C13.1395 16.1194 12.3456 16.1194 11.8636 16.6014C11.3816 17.0834 11.3816 17.8631 11.8636 18.3593L15.2376 21.7192C15.4786 21.9602 15.7905 22.0736 16.1024 22.0736C16.4285 22.0736 16.7404 21.9602 16.9814 21.7192L23.7153 14.9853C24.1973 14.5033 24.1973 13.7235 23.7153 13.2274Z" fill="#058E6E"/>
</svg>
